<svg width="45" height="941" viewBox="0 0 45 941" fill="none" xmlns="http://www.w3.org/2000/svg">
<mask id="mask0_715_4586" style="mask-type:alpha" maskUnits="userSpaceOnUse" x="0" y="0" width="45" height="941">
<rect width="45" height="941" fill="#D9D9D9"/>
</mask>
<g mask="url(#mask0_715_4586)">
<rect width="24.5207" height="153.724" transform="matrix(0.438365 0.905603 -0.300217 0.958753 17.2607 -19.2505)" fill="#0007AB"/>
<rect width="23.4062" height="153.724" transform="matrix(0.438365 0.905603 -0.300217 0.958753 28.0098 2.95557)" fill="white"/>
<rect width="24.5207" height="153.724" transform="matrix(0.438365 0.905603 -0.300217 0.958753 38.2705 24.1523)" fill="#C50000"/>
<rect width="24.9528" height="269.252" transform="matrix(0.438921 0.903885 -0.300828 0.957523 44.5146 36.5234)" fill="#0007AB"/>
<rect width="23.8186" height="269.252" transform="matrix(0.438921 0.903885 -0.300828 0.957523 55.4668 59.0781)" fill="white"/>
<rect width="24.9528" height="269.252" transform="matrix(0.438921 0.903885 -0.300828 0.957523 65.9219 80.6074)" fill="#C50000"/>
<rect width="24.9528" height="269.252" transform="matrix(0.438921 0.903885 -0.300828 0.957523 42.998 175.22)" fill="#0007AB"/>
<rect width="23.8186" height="269.252" transform="matrix(0.438921 0.903885 -0.300828 0.957523 53.9502 197.775)" fill="white"/>
<rect width="24.9528" height="269.252" transform="matrix(0.438921 0.903885 -0.300828 0.957523 64.4053 219.304)" fill="#C50000"/>
<rect width="24.9528" height="269.252" transform="matrix(0.438921 0.903885 -0.300828 0.957523 42.998 313.511)" fill="#0007AB"/>
<rect width="23.8186" height="269.252" transform="matrix(0.438921 0.903885 -0.300828 0.957523 53.9502 336.065)" fill="white"/>
<rect width="24.9528" height="269.252" transform="matrix(0.438921 0.903885 -0.300828 0.957523 64.4053 357.595)" fill="#C50000"/>
<rect width="24.9528" height="269.252" transform="matrix(0.438921 0.903885 -0.300828 0.957523 43.5684 453.241)" fill="#0007AB"/>
<rect width="23.8186" height="269.252" transform="matrix(0.438921 0.903885 -0.300828 0.957523 54.5205 475.796)" fill="white"/>
<rect width="24.9528" height="269.252" transform="matrix(0.438921 0.903885 -0.300828 0.957523 64.9756 497.325)" fill="#C50000"/>
<rect width="24.9528" height="269.252" transform="matrix(0.438921 0.903885 -0.300828 0.957523 45.2764 588.65)" fill="#0007AB"/>
<rect width="23.8186" height="269.252" transform="matrix(0.438921 0.903885 -0.300828 0.957523 56.2285 611.205)" fill="white"/>
<rect width="24.9528" height="269.252" transform="matrix(0.438921 0.903885 -0.300828 0.957523 66.6836 632.734)" fill="#C50000"/>
<rect width="24.9528" height="269.252" transform="matrix(0.438921 0.903885 -0.300828 0.957523 52.1094 709.655)" fill="#0007AB"/>
<rect width="23.8186" height="269.252" transform="matrix(0.438921 0.903885 -0.300828 0.957523 63.0615 732.209)" fill="white"/>
<rect width="24.9528" height="269.252" transform="matrix(0.438921 0.903885 -0.300828 0.957523 73.5166 753.739)" fill="#C50000"/>
</g>
</svg>
